<svg width="28" height="28" viewBox="0 0 28 28" fill="none" xmlns="http://www.w3.org/2000/svg">
<path fill-rule="evenodd" clip-rule="evenodd" d="M24.5 0H0V24.5C0 26.433 1.567 28 3.5 28H20.125L28 20.125V3.5C28 1.567 26.433 0 24.5 0Z" fill="#705FEB"/>
<path d="M13.346 8.214H11.456V14.654L6.15 8.214H3.56V8.452C4.246 8.69 4.344 9.376 4.344 10.468V18H6.234V11.42L11.638 18H13.346V8.214ZM24.6028 13.114C24.6028 10.748 22.8808 8.214 19.3388 8.214H14.9848V8.452C15.6708 8.69 15.7688 9.376 15.7688 10.468V18H19.3388C22.8808 18 24.6028 15.466 24.6028 13.114ZM22.4328 13.114C22.4328 14.682 21.5368 16.488 18.8768 16.488H17.7428V9.698H18.8768C21.5368 9.698 22.4328 11.546 22.4328 13.114Z" fill="white"/>
</svg>
