<svg width="78" height="12" viewBox="0 0 78 12" fill="none" xmlns="http://www.w3.org/2000/svg">
<path d="M66.5532 0H64.6094L59.0376 11.7979H61.5011L65.5621 3.08901L67.2365 6.56295H65.0809L63.9742 8.94948H68.2469L69.5845 11.7979H72.1058L66.5532 0Z" fill="currentColor"/>
<path d="M77.5911 11.8073H73.1452L72.2021 9.74799H73.8381V2.07838H72.2791V0.019043H77.5911V2.07838H76.0129V9.74799H77.5911V11.8073Z" fill="currentColor"/>
<path d="M3.78188 7.19801H2.3769V11.7882H0V0.0288086H3.78188C6.1684 0.0288086 7.94868 1.1932 7.94868 3.6086C7.9583 6.03362 6.17803 7.19801 3.78188 7.19801ZM3.4162 1.80908H2.3769V5.47548H3.4162C4.74419 5.47548 5.46592 4.77299 5.46592 3.63747C5.46592 2.54044 4.74419 1.80908 3.4162 1.80908Z" fill="currentColor"/>
<path d="M14.0881 5.71595C13.8186 5.53312 13.3952 5.3599 12.9141 5.3599C12.7986 5.3599 12.6927 5.37915 12.5772 5.38877C11.4995 5.52349 11.0472 6.33183 11.0472 7.65982V11.7785H8.8916V3.63737H10.8258L10.874 5.01347C11.2974 4.02229 12.1057 3.50264 12.9429 3.4834C12.9718 3.4834 13.0295 3.4834 13.0584 3.4834C13.7513 3.4834 14.2517 3.68548 14.6077 4.00304L14.0881 5.71595Z" fill="currentColor"/>
<path d="M19.246 11.9901C16.7247 11.9901 14.8193 10.1521 14.8193 7.71748C14.8193 5.28283 16.7343 3.44482 19.2556 3.44482C21.8442 3.44482 23.7111 5.24434 23.7111 7.71748C23.7111 9.83456 22.181 11.9901 19.246 11.9901ZM19.2556 5.19623C17.995 5.19623 17.0904 6.2259 17.0904 7.71748C17.0904 9.20906 17.995 10.2387 19.2556 10.2387C20.5355 10.2387 21.4593 9.20906 21.4593 7.71748C21.4593 6.2259 20.5355 5.19623 19.2556 5.19623Z" fill="currentColor"/>
<path d="M30.4377 11.4323C29.8314 11.798 28.975 12.0001 28.3399 12.0001C26.7039 12.0001 25.578 11.211 25.578 9.30561V5.32165H24.3848V4.76351L27.6951 1.58789V3.66648H30.1682V5.33127H27.6951V9.11315C27.6951 9.83488 28.0512 10.2391 28.5997 10.3064C28.6863 10.3064 28.7825 10.3064 28.8691 10.3064C29.4273 10.3064 29.9277 10.1043 30.4377 9.78677V11.4323Z" fill="currentColor"/>
<path d="M38.8002 8.17011H33.3535C33.4497 9.41149 34.2581 10.1717 35.3936 10.2679C35.5476 10.2872 35.6919 10.2872 35.8266 10.2872C36.6542 10.2872 37.4433 10.0659 38.1939 9.52696L38.55 11.057C37.6454 11.6633 36.5676 11.9809 35.384 11.9809C32.7569 11.9809 31.1113 10.2006 31.1113 7.7082C31.1113 5.27356 32.8242 3.43555 35.1145 3.43555C36.2404 3.43555 37.0873 3.75311 37.7416 4.42672C38.4634 5.14846 38.8387 6.22624 38.8387 7.55423C38.8387 7.76594 38.8194 7.94878 38.8002 8.17011ZM36.7312 6.7074C36.6831 5.81245 36.2597 5.0426 35.1145 5.0426C34.2773 5.0426 33.5845 5.60074 33.4112 6.7074H36.7312Z" fill="currentColor"/>
<path d="M46.2676 11.432C45.6806 11.7977 45.007 11.9901 43.9677 11.9901C41.4272 11.9901 39.5122 10.2099 39.5122 7.71748C39.5122 5.2251 41.4272 3.44482 43.9677 3.44482C45.007 3.44482 45.6806 3.64691 46.2676 4.00296V5.91796C45.6806 5.42718 45.0551 5.21547 44.1698 5.21547C42.8033 5.21547 41.7833 6.15854 41.7833 7.71748C41.7833 9.27642 42.8129 10.2387 44.1698 10.2387C45.0647 10.2387 45.6806 10.0078 46.2676 9.53624V11.432Z" fill="currentColor"/>
<path d="M53.2833 11.4323C52.677 11.798 51.8205 12.0001 51.1758 12.0001C49.5399 12.0001 48.414 11.211 48.414 9.30561V5.32165H47.2207V4.76351L50.531 1.58789V3.66648H53.0042V5.33127H50.531V9.11315C50.531 9.83488 50.8871 10.2391 51.4356 10.3064C51.5222 10.3064 51.6185 10.3064 51.7051 10.3064C52.2632 10.3064 52.7636 10.1043 53.2736 9.78677V11.4323H53.2833Z" fill="currentColor"/>
</svg>
