<svg width="96" height="15" viewBox="0 0 96 15" fill="none" xmlns="http://www.w3.org/2000/svg" id="top-logo">
<path d="M0.27008 1.51088H4.00976L9.3194 10.1898H9.35468V1.51088H12.1065V14H8.50796L3.0572 5.10944H3.02192V14H0.27008V1.51088ZM14.3897 1.51088H19.0466C19.5876 1.51088 20.1285 1.55204 20.6695 1.63436C21.2222 1.70492 21.7161 1.8578 22.1513 2.093C22.5864 2.31644 22.9392 2.63396 23.2097 3.04556C23.4801 3.45716 23.6154 4.004 23.6154 4.68608C23.6154 5.39168 23.4155 5.97968 23.0156 6.45008C22.6275 6.90872 22.1101 7.238 21.4633 7.43792V7.4732C21.8749 7.532 22.2453 7.6496 22.5746 7.826C22.9157 7.99064 23.2038 8.2082 23.439 8.47868C23.6859 8.7374 23.8741 9.04316 24.0035 9.39596C24.1328 9.74876 24.1975 10.1251 24.1975 10.5249C24.1975 11.1835 24.0564 11.7362 23.7741 12.1831C23.4919 12.6182 23.1273 12.971 22.6805 13.2415C22.2336 13.512 21.7279 13.706 21.1634 13.8236C20.6107 13.9412 20.058 14 19.5053 14H14.3897V1.51088ZM17.1415 6.503H19.1348C19.3465 6.503 19.5523 6.47948 19.7522 6.43244C19.9639 6.3854 20.1521 6.30896 20.3167 6.20312C20.4813 6.09728 20.6107 5.95616 20.7048 5.77976C20.8106 5.60336 20.8635 5.39168 20.8635 5.14472C20.8635 4.886 20.8047 4.67432 20.6871 4.50968C20.5813 4.33328 20.4402 4.19804 20.2638 4.10396C20.0874 4.00988 19.8875 3.9452 19.664 3.90992C19.4406 3.86288 19.223 3.83936 19.0113 3.83936H17.1415V6.503ZM17.1415 11.6715H19.6111C19.8228 11.6715 20.0345 11.648 20.2461 11.601C20.4696 11.5539 20.6695 11.4716 20.8459 11.354C21.0223 11.2364 21.1634 11.0835 21.2693 10.8954C21.3869 10.7072 21.4457 10.4779 21.4457 10.2074C21.4457 9.9134 21.3692 9.6782 21.2163 9.5018C21.0752 9.31364 20.8929 9.17252 20.6695 9.07844C20.4461 8.98436 20.205 8.91968 19.9463 8.8844C19.6875 8.84912 19.4465 8.83148 19.223 8.83148H17.1415V11.6715ZM30.5185 1.51088H34.6463C35.6459 1.51088 36.5926 1.6226 37.4863 1.84604C38.3919 2.06948 39.1798 2.43404 39.8501 2.93972C40.5204 3.43364 41.0496 4.08044 41.4377 4.88012C41.8375 5.6798 42.0375 6.65 42.0375 7.79072C42.0375 8.80208 41.8434 9.69584 41.4553 10.472C41.079 11.2364 40.5675 11.8832 39.9207 12.4124C39.2739 12.9298 38.5271 13.3238 37.6804 13.5943C36.8337 13.8648 35.9458 14 35.0167 14H30.5185V1.51088ZM33.2704 11.4598H34.6992C35.3343 11.4598 35.9223 11.3952 36.4632 11.2658C37.0159 11.1364 37.4922 10.9248 37.8921 10.6308C38.2919 10.325 38.6035 9.93104 38.827 9.44888C39.0622 8.95496 39.1798 8.3552 39.1798 7.6496C39.1798 7.03808 39.0622 6.50888 38.827 6.062C38.6035 5.60336 38.2978 5.22704 37.9097 4.93304C37.5216 4.63904 37.063 4.42148 36.5338 4.28036C36.0163 4.12748 35.4695 4.05104 34.8933 4.05104H33.2704V11.4598ZM51.4182 12.5182C50.9949 13.0592 50.4598 13.4767 49.813 13.7707C49.1662 14.0647 48.4959 14.2117 47.802 14.2117C47.1435 14.2117 46.5202 14.1058 45.9322 13.8942C45.3559 13.6825 44.8503 13.3826 44.4151 12.9945C43.9918 12.5947 43.6566 12.1184 43.4097 11.5657C43.1627 11.013 43.0392 10.3956 43.0392 9.71348C43.0392 9.0314 43.1627 8.414 43.4097 7.86128C43.6566 7.30856 43.9918 6.83816 44.4151 6.45008C44.8503 6.05024 45.3559 5.74448 45.9322 5.5328C46.5202 5.32112 47.1435 5.21528 47.802 5.21528C48.4135 5.21528 48.9663 5.32112 49.4602 5.5328C49.9659 5.74448 50.3892 6.05024 50.7303 6.45008C51.0831 6.83816 51.3535 7.30856 51.5417 7.86128C51.7299 8.414 51.8239 9.0314 51.8239 9.71348V10.5426H45.6852C45.7911 11.0482 46.0204 11.454 46.3732 11.7597C46.726 12.0537 47.1611 12.2007 47.6785 12.2007C48.1137 12.2007 48.4782 12.1066 48.7722 11.9185C49.078 11.7186 49.3426 11.4657 49.566 11.16L51.4182 12.5182ZM49.1779 8.74328C49.1897 8.2964 49.0427 7.9142 48.7369 7.59668C48.4312 7.27916 48.0372 7.1204 47.5551 7.1204C47.2611 7.1204 47.0023 7.16744 46.7789 7.26152C46.5555 7.3556 46.3614 7.47908 46.1968 7.63196C46.0439 7.77308 45.9204 7.9436 45.8263 8.14352C45.744 8.33168 45.697 8.5316 45.6852 8.74328H49.1779ZM54.0857 7.54376H52.3394V5.42696H54.0857V3.90992C54.0857 3.43952 54.1269 2.99852 54.2092 2.58692C54.2915 2.16356 54.4503 1.79312 54.6855 1.4756C54.9207 1.15808 55.2558 0.91112 55.691 0.73472C56.1378 0.54656 56.72 0.45248 57.4373 0.45248C57.7078 0.45248 57.9724 0.46424 58.2311 0.48776C58.4898 0.51128 58.7427 0.552439 58.9896 0.611239L58.8662 2.85152C58.7133 2.79272 58.5722 2.75156 58.4428 2.72804C58.3134 2.69276 58.1664 2.67512 58.0018 2.67512C57.5784 2.67512 57.2609 2.7692 57.0492 2.95736C56.8376 3.13376 56.7317 3.5042 56.7317 4.06868V5.42696H58.6898V7.54376H56.7317V14H54.0857V7.54376ZM67.5471 12.5182C67.1237 13.0592 66.5887 13.4767 65.9419 13.7707C65.2951 14.0647 64.6247 14.2117 63.9309 14.2117C63.2723 14.2117 62.6491 14.1058 62.0611 13.8942C61.4848 13.6825 60.9791 13.3826 60.544 12.9945C60.1207 12.5947 59.7855 12.1184 59.5385 11.5657C59.2916 11.013 59.1681 10.3956 59.1681 9.71348C59.1681 9.0314 59.2916 8.414 59.5385 7.86128C59.7855 7.30856 60.1207 6.83816 60.544 6.45008C60.9791 6.05024 61.4848 5.74448 62.0611 5.5328C62.6491 5.32112 63.2723 5.21528 63.9309 5.21528C64.5424 5.21528 65.0951 5.32112 65.5891 5.5328C66.0947 5.74448 66.5181 6.05024 66.8591 6.45008C67.2119 6.83816 67.4824 7.30856 67.6706 7.86128C67.8587 8.414 67.9528 9.0314 67.9528 9.71348V10.5426H61.8141C61.9199 11.0482 62.1493 11.454 62.5021 11.7597C62.8549 12.0537 63.29 12.2007 63.8074 12.2007C64.2425 12.2007 64.6071 12.1066 64.9011 11.9185C65.2069 11.7186 65.4715 11.4657 65.6949 11.16L67.5471 12.5182ZM65.3068 8.74328C65.3186 8.2964 65.1716 7.9142 64.8658 7.59668C64.5601 7.27916 64.1661 7.1204 63.6839 7.1204C63.3899 7.1204 63.1312 7.16744 62.9078 7.26152C62.6843 7.3556 62.4903 7.47908 62.3257 7.63196C62.1728 7.77308 62.0493 7.9436 61.9552 8.14352C61.8729 8.33168 61.8259 8.5316 61.8141 8.74328H65.3068ZM69.2973 5.42696H71.8375V6.5912H71.8728C71.9551 6.42656 72.0727 6.26192 72.2256 6.09728C72.3784 5.93264 72.5607 5.78564 72.7724 5.65628C72.9841 5.52692 73.2252 5.42108 73.4956 5.33876C73.7661 5.25644 74.0601 5.21528 74.3776 5.21528C75.048 5.21528 75.5889 5.32112 76.0005 5.5328C76.4121 5.73272 76.7296 6.01496 76.9531 6.37952C77.1883 6.74408 77.347 7.17332 77.4294 7.66724C77.5117 8.16116 77.5528 8.69624 77.5528 9.27248V14H74.9068V9.80168C74.9068 9.55472 74.8951 9.30188 74.8716 9.04316C74.8598 8.77268 74.8069 8.52572 74.7128 8.30228C74.6305 8.07884 74.4952 7.89656 74.3071 7.75544C74.1307 7.61432 73.872 7.54376 73.5309 7.54376C73.1899 7.54376 72.9135 7.60844 72.7018 7.7378C72.4902 7.8554 72.3255 8.02004 72.2079 8.23172C72.1021 8.43164 72.0315 8.66096 71.9962 8.91968C71.961 9.1784 71.9433 9.44888 71.9433 9.73112V14H69.2973V5.42696ZM84.0129 7.94948C83.6249 7.46732 83.1133 7.22624 82.4783 7.22624C82.2548 7.22624 82.0373 7.27916 81.8256 7.385C81.6139 7.49084 81.5081 7.67312 81.5081 7.93184C81.5081 8.14352 81.6139 8.30228 81.8256 8.40812C82.049 8.5022 82.3254 8.5904 82.6547 8.67272C82.9957 8.74328 83.3544 8.8256 83.7307 8.91968C84.1188 9.002 84.4775 9.13724 84.8067 9.3254C85.1478 9.51356 85.4241 9.77228 85.6358 10.1016C85.8593 10.4191 85.971 10.8483 85.971 11.3893C85.971 11.942 85.8475 12.4006 85.6005 12.7652C85.3653 13.118 85.0596 13.4061 84.6833 13.6296C84.3069 13.8412 83.8836 13.9882 83.4132 14.0706C82.9428 14.1646 82.4783 14.2117 82.0196 14.2117C81.4199 14.2117 80.8142 14.1294 80.2027 13.9647C79.5912 13.7883 79.0737 13.4826 78.6504 13.0474L80.2556 11.2658C80.5026 11.5716 80.7731 11.8068 81.0671 11.9714C81.3728 12.1243 81.7256 12.2007 82.1255 12.2007C82.4312 12.2007 82.7076 12.1596 82.9545 12.0772C83.2015 11.9832 83.325 11.8185 83.325 11.5833C83.325 11.3599 83.2133 11.1952 82.9898 11.0894C82.7781 10.9718 82.5018 10.8777 82.1607 10.8072C81.8315 10.7248 81.4728 10.6425 81.0847 10.5602C80.7084 10.4661 80.3497 10.3309 80.0087 10.1545C79.6794 9.97808 79.403 9.73112 79.1796 9.4136C78.9679 9.08432 78.8621 8.6492 78.8621 8.10824C78.8621 7.60256 78.962 7.16744 79.1619 6.80288C79.3736 6.43832 79.6441 6.13844 79.9734 5.90324C80.3144 5.66804 80.7025 5.49752 81.1376 5.39168C81.5727 5.27408 82.0137 5.21528 82.4606 5.21528C83.0251 5.21528 83.5955 5.2976 84.1717 5.46224C84.7479 5.62688 85.236 5.92088 85.6358 6.34424L84.0129 7.94948ZM95.1771 12.5182C94.7538 13.0592 94.2187 13.4767 93.5719 13.7707C92.9251 14.0647 92.2548 14.2117 91.5609 14.2117C90.9024 14.2117 90.2791 14.1058 89.6911 13.8942C89.1149 13.6825 88.6092 13.3826 88.1741 12.9945C87.7507 12.5947 87.4155 12.1184 87.1686 11.5657C86.9216 11.013 86.7981 10.3956 86.7981 9.71348C86.7981 9.0314 86.9216 8.414 87.1686 7.86128C87.4155 7.30856 87.7507 6.83816 88.1741 6.45008C88.6092 6.05024 89.1149 5.74448 89.6911 5.5328C90.2791 5.32112 90.9024 5.21528 91.5609 5.21528C92.1725 5.21528 92.7252 5.32112 93.2191 5.5328C93.7248 5.74448 94.1481 6.05024 94.4892 6.45008C94.842 6.83816 95.1125 7.30856 95.3006 7.86128C95.4888 8.414 95.5829 9.0314 95.5829 9.71348V10.5426H89.4441C89.55 11.0482 89.7793 11.454 90.1321 11.7597C90.4849 12.0537 90.92 12.2007 91.4375 12.2007C91.8726 12.2007 92.2371 12.1066 92.5311 11.9185C92.8369 11.7186 93.1015 11.4657 93.3249 11.16L95.1771 12.5182ZM92.9369 8.74328C92.9486 8.2964 92.8016 7.9142 92.4959 7.59668C92.1901 7.27916 91.7961 7.1204 91.314 7.1204C91.02 7.1204 90.7613 7.16744 90.5378 7.26152C90.3144 7.3556 90.1203 7.47908 89.9557 7.63196C89.8028 7.77308 89.6793 7.9436 89.5853 8.14352C89.5029 8.33168 89.4559 8.5316 89.4441 8.74328H92.9369Z" fill="white"/>
</svg>
