<svg width="304" height="17" viewBox="0 0 304 17" fill="none" xmlns="http://www.w3.org/2000/svg" class="branch-bottom">
<path d="M91 16V16.5H91.2071L91.3536 16.3536L91 16ZM104 3V2.5H103.793L103.646 2.64645L104 3ZM298.333 3C298.333 4.47276 299.527 5.66667 301 5.66667C302.473 5.66667 303.667 4.47276 303.667 3C303.667 1.52724 302.473 0.333333 301 0.333333C299.527 0.333333 298.333 1.52724 298.333 3ZM0 16.5H91V15.5H0V16.5ZM91.3536 16.3536L104.354 3.35355L103.646 2.64645L90.6464 15.6464L91.3536 16.3536ZM104 3.5H301V2.5H104V3.5Z" fill="currentColor"/>
</svg>
