<svg width="17" height="14" viewBox="0 0 17 14" fill="none" xmlns="http://www.w3.org/2000/svg">
<path fill-rule="evenodd" clip-rule="evenodd" d="M1.51318 1.75C1.51318 1.6837 1.53952 1.62011 1.5864 1.57322C1.63329 1.52634 1.69688 1.5 1.76318 1.5H10.2632C10.3295 1.5 10.3931 1.52634 10.44 1.57322C10.4869 1.62011 10.5132 1.6837 10.5132 1.75V7.25C10.5132 7.3163 10.4869 7.37989 10.44 7.42678C10.3931 7.47366 10.3295 7.5 10.2632 7.5H6.76318C6.56433 7.50017 6.3737 7.57931 6.23318 7.72L3.51318 10.44V8.25C3.51318 8.05109 3.43416 7.86032 3.29351 7.71967C3.15286 7.57902 2.96209 7.5 2.76318 7.5H1.76318C1.69688 7.5 1.63329 7.47366 1.5864 7.42678C1.53952 7.37989 1.51318 7.3163 1.51318 7.25V1.75ZM1.76318 0C1.29905 0 0.853936 0.18437 0.525747 0.51256C0.197558 0.84075 0.0131836 1.28587 0.0131836 1.75V7.25C0.0131836 8.216 0.797184 9 1.76318 9H2.01318V10.543C2.01328 10.8311 2.09879 11.1127 2.25889 11.3522C2.41899 11.5917 2.64651 11.7784 2.91268 11.8886C3.17885 11.9988 3.47172 12.0277 3.75429 11.9715C4.03685 11.9153 4.29642 11.7767 4.50018 11.573L7.07418 9H10.2632C10.7273 9 11.1724 8.81563 11.5006 8.48744C11.8288 8.15925 12.0132 7.71413 12.0132 7.25V1.75C12.0132 1.28587 11.8288 0.84075 11.5006 0.51256C11.1724 0.18437 10.7273 0 10.2632 0H1.76318ZM14.5132 3.75C14.5132 3.6837 14.4869 3.62011 14.44 3.57322C14.3931 3.52634 14.3295 3.5 14.2632 3.5H13.7632C13.5643 3.5 13.3735 3.42098 13.2329 3.28033C13.0922 3.13968 13.0132 2.94891 13.0132 2.75C13.0132 2.55109 13.0922 2.36032 13.2329 2.21967C13.3735 2.07902 13.5643 2 13.7632 2H14.2632C15.2292 2 16.0132 2.784 16.0132 3.75V9.25C16.0132 9.7141 15.8288 10.1592 15.5006 10.4874C15.1724 10.8156 14.7273 11 14.2632 11H14.0132V12.543C14.0131 12.8311 13.9276 13.1127 13.7675 13.3522C13.6074 13.5917 13.3799 13.7784 13.1137 13.8886C12.8475 13.9988 12.5547 14.0277 12.2721 13.9715C11.9895 13.9153 11.73 13.7767 11.5262 13.573L9.23318 11.28C9.15949 11.2113 9.10039 11.1285 9.0594 11.0365C9.01841 10.9445 8.99636 10.8452 8.99459 10.7445C8.99281 10.6438 9.01134 10.5438 9.04906 10.4504C9.08678 10.357 9.14292 10.2722 9.21414 10.201C9.28536 10.1297 9.37019 10.0736 9.46358 10.0359C9.55697 9.9982 9.657 9.9796 9.7577 9.9814C9.85841 9.9832 9.95772 10.0052 10.0497 10.0462C10.1417 10.0872 10.2245 10.1463 10.2932 10.22L12.5132 12.44V10.25C12.5132 10.0511 12.5922 9.8603 12.7329 9.7197C12.8735 9.579 13.0643 9.5 13.2632 9.5H14.2632C14.3295 9.5 14.3931 9.4737 14.44 9.4268C14.4869 9.3799 14.5132 9.3163 14.5132 9.25V3.75Z" fill="currentColor"/>
</svg>
