<svg width="17" height="16" viewBox="0 0 17 16" fill="none" xmlns="http://www.w3.org/2000/svg">
<path d="M3.37659 10.1147C3.37659 11.0446 2.625 11.7962 1.69507 11.7962C0.76514 11.7962 0.0135523 11.0446 0.0135523 10.1147C0.0135523 9.18476 0.76514 8.43317 1.69507 8.43317H3.37659V10.1147ZM4.21735 10.1147C4.21735 9.18476 4.96894 8.43317 5.89887 8.43317C6.8288 8.43317 7.58039 9.18476 7.58039 10.1147V14.3185C7.58039 15.2484 6.8288 16 5.89887 16C4.96894 16 4.21735 15.2484 4.21735 14.3185V10.1147Z" fill="currentColor"/>
<path d="M5.89805 3.36304C4.96812 3.36304 4.21654 2.61145 4.21654 1.68152C4.21654 0.751588 4.96812 0 5.89805 0C6.82798 0 7.57957 0.751588 7.57957 1.68152V3.36304H5.89805ZM5.89805 4.21654C6.82798 4.21654 7.57957 4.96812 7.57957 5.89805C7.57957 6.82798 6.82798 7.57957 5.89805 7.57957H1.68152C0.751588 7.57957 0 6.82798 0 5.89805C0 4.96812 0.751588 4.21654 1.68152 4.21654H5.89805Z" fill="currentColor"/>
<path d="M12.6375 5.89805C12.6375 4.96812 13.3891 4.21654 14.319 4.21654C15.2489 4.21654 16.0005 4.96812 16.0005 5.89805C16.0005 6.82798 15.2489 7.57957 14.319 7.57957H12.6375V5.89805ZM11.7967 5.89805C11.7967 6.82798 11.0451 7.57957 10.1152 7.57957C9.18528 7.57957 8.43369 6.82798 8.43369 5.89805V1.68152C8.43369 0.751588 9.18528 0 10.1152 0C11.0451 0 11.7967 0.751588 11.7967 1.68152V5.89805Z" fill="currentColor"/>
<path d="M10.1152 12.637C11.0451 12.637 11.7967 13.3886 11.7967 14.3185C11.7967 15.2484 11.0451 16 10.1152 16C9.18528 16 8.43369 15.2484 8.43369 14.3185V12.637H10.1152ZM10.1152 11.7962C9.18528 11.7962 8.43369 11.0446 8.43369 10.1147C8.43369 9.18476 9.18528 8.43317 10.1152 8.43317H14.3317C15.2617 8.43317 16.0133 9.18476 16.0133 10.1147C16.0133 11.0446 15.2617 11.7962 14.3317 11.7962H10.1152Z" fill="currentColor"/>
</svg>
